<svg xmlns="http://www.w3.org/2000/svg" width="535.954" height="556.448" viewBox="0 0 535.954 556.448"><g transform="translate(-737.724 -304.335)"><path d="M1004.573,828.069c-134.263,0-243.5-109.231-243.5-243.5s109.233-243.5,243.5-243.5,243.5,109.232,243.5,243.5S1138.837,828.069,1004.573,828.069Zm0-485.766C870.984,342.3,762.3,450.985,762.3,584.573s108.682,242.271,242.271,242.271,242.271-108.682,242.271-242.271S1138.163,342.3,1004.573,342.3Z" transform="translate(1.127 8.233)" fill="#fff"/><path d="M999.892,797.814c-120.164,0-217.923-97.76-217.923-217.922s97.759-217.923,217.923-217.923,217.922,97.76,217.922,217.923S1120.055,797.814,999.892,797.814Zm0-385.658c-92.49,0-167.736,75.246-167.736,167.736S907.4,747.627,999.892,747.627s167.735-75.245,167.735-167.735S1092.382,412.156,999.892,412.156Z" transform="translate(5.808 12.914)" fill="#fff"/><g transform="translate(1108.068 427.767)"><path d="M1049.881,413.606l-2.273.454-1.726,2.476-2.254-1.57,6.829-9.794,2.252,1.57-3.19,4.574,7.528-1.55,2.519,1.755-7.1,1.536.511,8.423-2.644-1.843Z" transform="translate(-1043.628 -405.172)"/><path d="M1057.813,424.132a5.45,5.45,0,0,1,1.572-3.988l4.381-5.052,2.086,1.81-4.311,4.975q-2.1,2.424-.092,4.165a2.5,2.5,0,0,0,2,.71,3.613,3.613,0,0,0,2.108-1.391l4.312-4.973,2.063,1.787-4.38,5.052a5.648,5.648,0,0,1-9.742-3.1Z" transform="translate(-1040.453 -402.949)"/><path d="M1079.4,439.319a2.978,2.978,0,0,1-.973,1.7,2.761,2.761,0,0,1-2.6.747,6.241,6.241,0,0,1-3.036-2.032l-4.2-4.528,8.752-8.119,3.969,4.277a5.715,5.715,0,0,1,1.665,3.025,2.641,2.641,0,0,1-.869,2.4,2.9,2.9,0,0,1-1.421.75,2.937,2.937,0,0,1-1.582-.125A3.143,3.143,0,0,1,1079.4,439.319Zm-3.843-.193a1.226,1.226,0,0,0,1.19-.346q1.091-1.01-.407-2.622l-2.191-2.365-2.164,2.008,2.191,2.362A3.067,3.067,0,0,0,1075.559,439.126Zm2.13-8.615-2.065,1.913,1.868,2.014a2.781,2.781,0,0,0,1.321.895,1.187,1.187,0,0,0,1.131-.332,1.164,1.164,0,0,0,.41-1.1,2.819,2.819,0,0,0-.8-1.376Z" transform="translate(-1038.034 -400.263)"/><path d="M1086.654,453.317l-1.774,1.331-5.552-7.392,9.546-7.169,5.421,7.215-1.774,1.332-3.769-5.019-2.073,1.557,3.329,4.432-1.717,1.29-3.329-4.432-2.211,1.66Z" transform="translate(-1035.629 -397.349)"/><path d="M1091.942,465.8l1.661-3.689-.07-.116-1.24-2.06-2.851,1.715-1.423-2.367,10.228-6.157,2.665,4.426a6.636,6.636,0,0,1,.968,2.633,3.948,3.948,0,0,1-2.006,4.044,3.889,3.889,0,0,1-4.5-.16l-1.9,4.274Zm7.478-5.32a2.9,2.9,0,0,0-.515-1.9l-1.162-1.929-3.566,2.147,1.161,1.928a2.873,2.873,0,0,0,1.444,1.342,2.152,2.152,0,0,0,2.637-1.589Z" transform="translate(-1033.681 -394.427)"/><path d="M1111.283,477.763l-10.83,5.021-.955-2.059,4.072-8.449-6.577,3.049-1.147-2.476,10.832-5.02.962,2.072-4.081,8.434,6.577-3.049Z" transform="translate(-1031.927 -391.132)"/><path d="M1107.6,496.152l-2.1.719-2.992-8.748,11.3-3.864,2.92,8.537-2.1.719-2.032-5.939-2.452.84,1.795,5.245-2.034.7-1.793-5.245L1105.5,490Z" transform="translate(-1030.434 -387.451)"/><path d="M1116.883,502.653l-.885-3.716,2.19-.521,2.411,10.121-2.191.521-.884-3.716-9.424,2.244-.641-2.688Z" transform="translate(-1029.325 -384.279)"/><path d="M1113.41,524.859l-2.2.3-1.271-9.157,11.825-1.642,1.241,8.937-2.2.3-.862-6.217-2.568.356.761,5.491-2.127.295-.764-5.49-2.736.379Z" transform="translate(-1028.769 -380.705)"/><path d="M1111.85,532.01a6.446,6.446,0,0,1,.91-2.162l2.118.852a6.373,6.373,0,0,0-.829,1.861,6.85,6.85,0,0,0-.255,2.128,3.372,3.372,0,0,0,.421,1.723,1.054,1.054,0,0,0,.951.524.884.884,0,0,0,.694-.361,2.512,2.512,0,0,0,.417-.87q.149-.527.318-1.422a18.9,18.9,0,0,1,.557-2.258,3.605,3.605,0,0,1,.977-1.534,2.811,2.811,0,0,1,1.883-.7,3.328,3.328,0,0,1,1.908.486,3.783,3.783,0,0,1,1.406,1.64,6.92,6.92,0,0,1,.609,2.748,9.3,9.3,0,0,1-.18,2.244,6.6,6.6,0,0,1-.708,1.941l-2.131-.766a6.666,6.666,0,0,0,.8-3.344,3.1,3.1,0,0,0-.447-1.7,1.142,1.142,0,0,0-1.01-.513.972.972,0,0,0-.888.677,10.2,10.2,0,0,0-.507,1.975,19,19,0,0,1-.556,2.259,3.7,3.7,0,0,1-.961,1.533,2.752,2.752,0,0,1-1.866.7,3.261,3.261,0,0,1-1.891-.494,3.841,3.841,0,0,1-1.408-1.657,6.972,6.972,0,0,1-.607-2.758A9.679,9.679,0,0,1,1111.85,532.01Z" transform="translate(-1028.405 -377.249)"/></g><g transform="translate(807.962 426.096)"><path d="M805.973,531.709l1.564,1.706,3.012.193-.176,2.742-11.914-.769.176-2.741,5.566.358-5.226-5.636.2-3.063,4.992,5.278,6.942-4.8L810.9,528.2Z" transform="translate(-798.459 -376.762)"/><path d="M810.784,519.257a5.442,5.442,0,0,1-4.224.72l-6.591-1.13.468-2.721,6.489,1.11q3.16.543,3.61-2.08a2.5,2.5,0,0,0-.431-2.081,3.609,3.609,0,0,0-2.28-1.083l-6.489-1.113.461-2.69,6.589,1.13a5.648,5.648,0,0,1,2.4,9.938Z" transform="translate(-798.121 -380.418)"/><path d="M812.856,493.1a2.981,2.981,0,0,1,1.956-.045,2.759,2.759,0,0,1,1.984,1.836,6.235,6.235,0,0,1-.165,3.65l-1.7,5.938-11.479-3.282,1.6-5.61a5.705,5.705,0,0,1,1.725-2.992,2.643,2.643,0,0,1,2.5-.5,2.872,2.872,0,0,1,2.089,2.246A3.143,3.143,0,0,1,812.856,493.1Zm-6.647,6.027,2.706.775.755-2.64a2.785,2.785,0,0,0,.082-1.593,1.2,1.2,0,0,0-.871-.8,1.17,1.17,0,0,0-1.155.22,2.832,2.832,0,0,0-.762,1.4Zm8.473-2.642a1.222,1.222,0,0,0-.913-.836q-1.427-.409-2.032,1.706l-.887,3.1,2.839.812.885-3.1A3.052,3.052,0,0,0,814.682,496.483Z" transform="translate(-797.34 -384.052)"/><path d="M821.149,479.612l2.058.827-3.447,8.577-11.078-4.452,3.364-8.373,2.059.826-2.342,5.825,2.405.966,2.068-5.142,1.994.8-2.067,5.143,2.564,1.032Z" transform="translate(-796.168 -387.587)"/><path d="M829.152,468.6l-4.017.49-.061.119-1.121,2.129,2.944,1.551-1.288,2.445-10.565-5.56,2.406-4.573a6.645,6.645,0,0,1,1.752-2.192,3.947,3.947,0,0,1,4.5-.379,3.89,3.89,0,0,1,2.192,3.928l4.643-.581Zm-8.424-3.642a2.909,2.909,0,0,0-1.357,1.425l-1.048,1.992,3.683,1.94,1.048-1.992a2.867,2.867,0,0,0,.4-1.933,2.153,2.153,0,0,0-2.724-1.432Z" transform="translate(-794.743 -390.745)"/><path d="M829.426,446.213l9.905,6.664-1.267,1.883-9.336.893,6.014,4.046-1.524,2.265-9.905-6.665,1.277-1.895,9.326-.88-6.014-4.046Z" transform="translate(-792.89 -394.305)"/><path d="M847.1,439.512l1.7,1.424-5.933,7.09-9.156-7.659,5.789-6.921,1.7,1.422-4.027,4.814,1.988,1.662,3.557-4.25,1.648,1.38-3.556,4.25,2.119,1.775Z" transform="translate(-790.559 -397.166)"/><path d="M847.805,428.187l-2.721,2.682-1.58-1.6,7.409-7.305,1.58,1.6-2.721,2.682,6.8,6.9-1.969,1.94Z" transform="translate(-788.365 -399.739)"/><path d="M868.7,419.535l1.4,1.721-7.174,5.83-7.529-9.265,7-5.692,1.4,1.722-4.871,3.959,1.635,2.011,4.3-3.495,1.355,1.667-4.3,3.495,1.743,2.146Z" transform="translate(-785.701 -401.942)"/><path d="M875.413,416.925a6.432,6.432,0,0,1-2.322.343l-.369-2.254a6.4,6.4,0,0,0,2.021-.255,6.827,6.827,0,0,0,1.952-.884,3.365,3.365,0,0,0,1.256-1.253,1.054,1.054,0,0,0-.045-1.086.889.889,0,0,0-.667-.406,2.565,2.565,0,0,0-.961.094q-.527.147-1.38.466a19.114,19.114,0,0,1-2.222.693,3.607,3.607,0,0,1-1.818-.042,2.8,2.8,0,0,1-1.574-1.247,3.315,3.315,0,0,1-.573-1.883,3.78,3.78,0,0,1,.675-2.053,6.918,6.918,0,0,1,2.037-1.945,9.184,9.184,0,0,1,2.012-1.006,6.588,6.588,0,0,1,2.026-.4l.448,2.219a6.656,6.656,0,0,0-3.276,1.048,3.085,3.085,0,0,0-1.222,1.258,1.146,1.146,0,0,0,.084,1.131.972.972,0,0,0,1.038.408,10.133,10.133,0,0,0,1.954-.589,19.324,19.324,0,0,1,2.219-.694,3.7,3.7,0,0,1,1.81.027,2.753,2.753,0,0,1,1.564,1.234,3.262,3.262,0,0,1,.556,1.873,3.851,3.851,0,0,1-.688,2.063,6.978,6.978,0,0,1-2.044,1.949A9.687,9.687,0,0,1,875.413,416.925Z" transform="translate(-782.717 -403.807)"/></g><g transform="translate(917.602 756.088)"><path d="M893.955,684.381l-2.159.833-1.281,2.735-2.487-1.163,5.06-10.813,2.489,1.163-2.365,5.051,7.153-2.809,2.781,1.3-6.737,2.722,1.938,8.215-2.919-1.368Z" transform="translate(-888.028 -672.813)"/><path d="M904.87,692.886a5.446,5.446,0,0,1-.028-4.286l2.179-6.321,2.612.9-2.145,6.224q-1.045,3.033,1.47,3.9a2.485,2.485,0,0,0,2.122-.089,3.615,3.615,0,0,0,1.437-2.075l2.146-6.223,2.579.887-2.179,6.321a5.647,5.647,0,0,1-10.194.761Z" transform="translate(-884.355 -671.4)"/><path d="M931.528,696.237a2.986,2.986,0,0,1,.153,1.95,2.764,2.764,0,0,1-1.725,2.083,6.257,6.257,0,0,1-3.655.035l-6.021-1.367,2.645-11.643,5.687,1.293a5.711,5.711,0,0,1,3.083,1.557,2.65,2.65,0,0,1,.638,2.471,2.867,2.867,0,0,1-2.129,2.209A3.145,3.145,0,0,1,931.528,696.237Zm-3.281,2.009a1.232,1.232,0,0,0,.787-.957q.328-1.449-1.819-1.934l-3.144-.715-.652,2.878,3.143.714A3.063,3.063,0,0,0,928.248,698.246Zm-3.105-8.314-.624,2.746,2.678.607a2.75,2.75,0,0,0,1.592,0,1.2,1.2,0,0,0,.75-.913,1.172,1.172,0,0,0-.284-1.141,2.823,2.823,0,0,0-1.435-.684Z" transform="translate(-880.801 -670.276)"/><path d="M946.678,701.219l-.263,2.2-9.178-1.1,1.424-11.854,8.958,1.077-.264,2.2-6.232-.75-.31,2.575,5.5.66-.256,2.135-5.5-.662-.329,2.743Z" transform="translate(-877.002 -669.566)"/><path d="M960.733,703.94l-2.244-3.366h-.137l-2.4-.044-.057,3.326-2.764-.048.211-11.937,5.168.091a6.652,6.652,0,0,1,2.743.576,4.087,4.087,0,0,1,1.772,1.533,4.158,4.158,0,0,1,.592,2.315,3.9,3.9,0,0,1-2.523,3.725l2.61,3.883Zm-.538-9.161a2.905,2.905,0,0,0-1.884-.572l-2.25-.038-.073,4.159,2.251.042a2.884,2.884,0,0,0,1.9-.513,2.157,2.157,0,0,0,.054-3.079Z" transform="translate(-873.441 -669.251)"/><path d="M980.065,690.939l1.076,11.892-2.26.2-6.582-6.682.654,7.22-2.717.247-1.077-11.892,2.277-.205L978,698.4l-.652-7.218Z" transform="translate(-869.849 -669.46)"/><path d="M996.872,697.83l.428,2.175-9.068,1.788-2.311-11.712,8.853-1.747.428,2.175-6.157,1.214.5,2.545,5.438-1.073.416,2.106-5.438,1.073.535,2.711Z" transform="translate(-866.093 -670.043)"/><path d="M1003.816,688.388l-3.661,1.094-.644-2.157,9.968-2.981.644,2.156-3.659,1.1,2.776,9.282-2.647.791Z" transform="translate(-863.048 -670.937)"/><path d="M1026.354,688.171l.836,2.054-8.563,3.485-4.5-11.061,8.357-3.4.836,2.055-5.813,2.365.977,2.4,5.134-2.089.81,1.992-5.135,2.088,1.042,2.56Z" transform="translate(-859.772 -672.079)"/><path d="M1034.275,686.454a6.419,6.419,0,0,1-2.346.1l-.136-2.279a6.31,6.31,0,0,0,2.037-.048,6.749,6.749,0,0,0,2.031-.68,3.368,3.368,0,0,0,1.378-1.118,1.055,1.055,0,0,0,.067-1.084.892.892,0,0,0-.626-.473,2.543,2.543,0,0,0-.964,0c-.36.062-.832.168-1.42.322a19.442,19.442,0,0,1-2.279.465,3.632,3.632,0,0,1-1.805-.229,2.807,2.807,0,0,1-1.44-1.4,3.335,3.335,0,0,1-.375-1.93,3.775,3.775,0,0,1,.88-1.974,6.928,6.928,0,0,1,2.224-1.726,9.174,9.174,0,0,1,2.1-.8,6.612,6.612,0,0,1,2.056-.195l.22,2.255a6.637,6.637,0,0,0-3.366.707,3.1,3.1,0,0,0-1.343,1.129,1.148,1.148,0,0,0-.032,1.134.968.968,0,0,0,.991.51,10.014,10.014,0,0,0,2-.387,19.535,19.535,0,0,1,2.28-.464,3.72,3.72,0,0,1,1.8.21,2.745,2.745,0,0,1,1.43,1.388,3.244,3.244,0,0,1,.362,1.92,3.819,3.819,0,0,1-.895,1.982,6.954,6.954,0,0,1-2.231,1.73A9.827,9.827,0,0,1,1034.275,686.454Z" transform="translate(-856.58 -673.392)"/></g><g transform="translate(892.413 528.628)"><path d="M1020.09,565.06h33.315l-7.68-32.743Z" transform="translate(-980.248 -478.543)" fill="#3d90ce"/><path d="M987.541,543.792v18.7h35.011l14.64-18.7Z" transform="translate(-987.541 -475.972)" fill="#3d90ce"/><path d="M1026.437,508.645l38.907,18.939V489.92Z" transform="translate(-978.825 -488.044)" fill="#3d90ce"/><path d="M1052.793,568.851h9.452V526.1l-21.987-10.7Z" transform="translate(-975.728 -482.334)" fill="#3d90ce"/><path d="M1064.182,488.387h-48.456l-5.846,26.131Z" transform="translate(-982.536 -488.387)" fill="#3d90ce"/><path d="M987.541,511.067v36.255h28.835Z" transform="translate(-987.541 -483.305)" fill="#3d90ce"/><path d="M1016.833,488.387H987.541v21.651l19.082,23.993Z" transform="translate(-987.541 -488.387)" fill="#3d90ce"/><g transform="translate(0.055 98.974)"><path d="M987.586,592.2V569.563h4.265v18.918h12.082V592.2Z" transform="translate(-987.586 -569.172)" fill="#001021"/><path d="M1006.021,592.2V569.563h16.2v3.654h-11.941v5.465h7.357v3.654h-7.357v6.208h12.723V592.2Z" transform="translate(-983.455 -569.172)" fill="#001021"/><path d="M1044.3,592.2h-3.874L1030.125,577.9a13.818,13.818,0,0,1-1.031-1.682,12.213,12.213,0,0,1,.108,1.682V592.2h-4.229V569.564h4.123l10.056,14.067a17.862,17.862,0,0,1,1.032,1.716,14.059,14.059,0,0,1-.108-1.716v-14.07h4.229Z" transform="translate(-979.208 -569.172)" fill="#001021"/><path d="M1054.363,592.657c-4.2.036-7.922-1.992-9.381-5.852l3.944-1.327a6.1,6.1,0,0,0,5.579,3.494,5.329,5.329,0,0,0,3.111-.809,2.726,2.726,0,0,0,.645-3.8,2.764,2.764,0,0,0-.538-.564,14.222,14.222,0,0,0-4.282-1.812c-2.222-.714-4.262-1.3-5.954-2.781a5.453,5.453,0,0,1,.622-8.214c2.488-2.148,8.362-2.354,11.156-.4a6.564,6.564,0,0,1,2.772,3.508l-3.839,1.164q-1.136-2.328-4.407-2.328a4.647,4.647,0,0,0-2.611.63,1.949,1.949,0,0,0-.66,2.677,1.985,1.985,0,0,0,.444.509c1.318,1.059,2.17,1.1,4.033,1.716,2.652.894,5.466,1.688,7.144,4.026a6.427,6.427,0,0,1,.958,3.347C1063.119,590.5,1058.809,592.684,1054.363,592.657Z" transform="translate(-974.725 -569.244)" fill="#001021"/></g></g><path d="M772.342,714.772a268.021,268.021,0,0,1,236.713-393.694v50.187c-120.089,0-217.79,97.7-217.79,217.79A218.157,218.157,0,0,0,816.649,691.2Z" transform="translate(-3.354 3.752)" fill="#214666"/><path d="M1003.332,789.279A267.657,267.657,0,0,1,766.619,647.02l44.307-23.576a217.866,217.866,0,0,0,374.5,17.381l41.927,27.582A267.454,267.454,0,0,1,1003.332,789.279Z" transform="translate(2.369 71.504)" fill="#b3d1ea"/><path d="M1183.33,736.152,1141.4,708.57A217.814,217.814,0,0,0,963.094,371.29l.853-50.18A268.016,268.016,0,0,1,1183.33,736.152Z" transform="translate(46.394 3.759)" fill="#428ccb"/><path d="M1004.478,351.136l-25.783,23.4-25.783,23.4v-93.6l25.783,23.4Z" transform="translate(44.112 0)" fill="#214666"/><path d="M770.42,603.369l33.106,10.786,33.106,10.786-40.642,23.207-40.642,23.207,7.536-33.993Z" transform="translate(-0.157 67.006)" fill="#b3d1ea"/><path d="M1107.816,690.312l-6.04-34.291-6.04-34.291,39.586,24.966,39.586,24.965-33.547,9.325Z" transform="translate(76.115 71.12)" fill="#428ccb"/><g transform="translate(1136.283 385.383)"><path d="M1068.71,387a11.53,11.53,0,0,1-2.031-3.688l3.556-2.031a11.4,11.4,0,0,0,1.7,3.238,12.276,12.276,0,0,0,2.708,2.725,6.039,6.039,0,0,0,2.894,1.327,1.885,1.885,0,0,0,1.8-.755,1.6,1.6,0,0,0,.265-1.376,4.543,4.543,0,0,0-.762-1.557c-.384-.53-.932-1.208-1.646-2.028a34.3,34.3,0,0,1-2.56-3.3,6.5,6.5,0,0,1-1.068-3.085,5.042,5.042,0,0,1,1.111-3.429,5.966,5.966,0,0,1,2.8-2.141,6.78,6.78,0,0,1,3.875-.153,12.4,12.4,0,0,1,4.545,2.2,16.5,16.5,0,0,1,2.955,2.753,11.865,11.865,0,0,1,1.945,3.153l-3.451,2.146a11.942,11.942,0,0,0-3.814-4.851,5.571,5.571,0,0,0-2.883-1.264,2.056,2.056,0,0,0-1.849.851,1.736,1.736,0,0,0-.033,2,18.054,18.054,0,0,0,2.213,2.913,35.178,35.178,0,0,1,2.558,3.3,6.657,6.657,0,0,1,1.087,3.059,4.923,4.923,0,0,1-1.094,3.4,5.821,5.821,0,0,1-2.8,2.109,6.886,6.886,0,0,1-3.9.135,12.542,12.542,0,0,1-4.557-2.213A17.535,17.535,0,0,1,1068.71,387Z" transform="translate(-1066.679 -370.547)" fill="#fff"/><path d="M1096.422,381.918l3.752,3.241-14,16.21-3.753-3.243Z" transform="translate(-1063.153 -367.999)" fill="#fff"/><path d="M1104.69,419.763l9.349-8.821-12.034,2.653-1.529-1.628,3.224-11.632-9.171,8.609-3.182-3.391,15.616-14.663,2.807,2.989-4.217,14.956,15.11-3.355,2.786,2.966-15.574,14.707Z" transform="translate(-1061.152 -365.989)" fill="#fff"/><path d="M1134.431,425.053a7.349,7.349,0,0,1-.3,4.195,8.073,8.073,0,0,1-6.691,4.82,7.226,7.226,0,0,1-4.074-1.045,12.085,12.085,0,0,1-3.646-3.464l-2.522-3.5-4.791,3.452-2.9-4.022,17.379-12.52,5.422,7.523A11.893,11.893,0,0,1,1134.431,425.053Zm-8.823,4.114a3.358,3.358,0,0,0,2.9-.659,3.393,3.393,0,0,0,1.568-2.563,5.215,5.215,0,0,0-1.2-3.318l-2.36-3.278-6.035,4.347,2.363,3.277A5.216,5.216,0,0,0,1125.608,429.167Z" transform="translate(-1057.081 -361.042)" fill="#fff"/><path d="M1140.348,432.313l2.46,4.3-15.087,8.632,5.333,9.321-3.507,2.006-7.8-13.626Z" transform="translate(-1054.339 -356.707)" fill="#fff"/><path d="M1150.125,450.184l2.109,4.486-19.386,9.114-2.109-4.486Z" transform="translate(-1052.325 -352.702)" fill="#fff"/><path d="M1137.753,473.231a10.591,10.591,0,0,1,2.281-5.264,11.5,11.5,0,0,1,10.72-3.916,10.615,10.615,0,0,1,5.136,2.555,12.366,12.366,0,0,1,3.378,5.1,12.5,12.5,0,0,1,.807,5.065,10.086,10.086,0,0,1-1.348,4.517l-3.851-1.983a6.842,6.842,0,0,0,.51-5.919,7.155,7.155,0,0,0-2.038-3.036,6.206,6.206,0,0,0-3.12-1.452,7.665,7.665,0,0,0-6.669,2.436,6.21,6.21,0,0,0-1.451,3.12,7.155,7.155,0,0,0,.4,3.633,6.8,6.8,0,0,0,4.234,4.188l-1.668,4a9.944,9.944,0,0,1-3.975-2.589,12.594,12.594,0,0,1-2.651-4.407A12.284,12.284,0,0,1,1137.753,473.231Z" transform="translate(-1050.78 -349.637)" fill="#fff"/><path d="M1163.412,484.854l1.275,4.792-20.7,5.512-1.277-4.791Z" transform="translate(-1049.642 -344.934)" fill="#fff"/><path d="M1163.368,503.394l-1.209-6.746,3.976-.712,3.294,18.373-3.976.712-1.211-6.747-17.109,3.066-.875-4.88Z" transform="translate(-1048.847 -342.451)" fill="#fff"/><path d="M1156.838,529.983l-7.568.562-.366-4.944,7.63-.565,13.12-9.29.389,5.25-9.068,6.409,9.914,5,.36,4.854Z" transform="translate(-1048.255 -338.012)" fill="#fff"/></g><g transform="translate(759.036 407.868)"><path d="M777.614,501.6a10.593,10.593,0,0,1-4.822,3.1A11.5,11.5,0,0,1,761.7,502a10.627,10.627,0,0,1-2.846-4.981,12.369,12.369,0,0,1,.033-6.12,12.5,12.5,0,0,1,2.146-4.658,10.114,10.114,0,0,1,3.633-3l2.1,3.79a6.849,6.849,0,0,0-3.717,4.636,7.12,7.12,0,0,0,0,3.655,6.185,6.185,0,0,0,1.785,2.943,7.659,7.659,0,0,0,6.9,1.687,6.205,6.205,0,0,0,2.943-1.786,7.146,7.146,0,0,0,1.689-3.241,6.8,6.8,0,0,0-1.187-5.834l3.609-2.394a9.9,9.9,0,0,1,1.864,4.361,12.621,12.621,0,0,1-.247,5.137A12.3,12.3,0,0,1,777.614,501.6Z" transform="translate(-758.489 -367.781)" fill="#fff"/><path d="M770.224,459.648,790.27,467.2l-1.749,4.638-8.217-3.1-3.431,9.107,8.218,3.1-1.748,4.641L763.3,478.032l1.748-4.639,7.9,2.978,3.431-9.107-7.9-2.977Z" transform="translate(-757.412 -373.067)" fill="#fff"/><path d="M792.429,459.29a10.667,10.667,0,0,1-5.464,1.852,11.393,11.393,0,0,1-10.036-5.308,10.683,10.683,0,0,1-1.543-5.559A13.255,13.255,0,0,1,781,439.658a10.927,10.927,0,0,1,17.043,9.014,13.253,13.253,0,0,1-5.616,10.618Zm1.181-10.056a6.282,6.282,0,0,0-1.028-3.261,7.652,7.652,0,0,0-6.276-3.318,6.271,6.271,0,0,0-3.274.984,7.181,7.181,0,0,0-3.2,6.062,6.259,6.259,0,0,0,1.028,3.261,7.651,7.651,0,0,0,6.276,3.318,6.257,6.257,0,0,0,3.273-.985,7.178,7.178,0,0,0,3.206-6.06Z" transform="translate(-754.703 -377.965)" fill="#fff"/><path d="M785.955,428.506l2.724-4.143,17.9,11.766-2.722,4.142Z" transform="translate(-752.335 -380.973)" fill="#fff"/><path d="M811.558,428.2a10.6,10.6,0,0,1-5.678.808,11.506,11.506,0,0,1-8.941-7.095,10.612,10.612,0,0,1-.505-5.714,12.376,12.376,0,0,1,2.584-5.547,12.513,12.513,0,0,1,3.9-3.334,10.076,10.076,0,0,1,4.554-1.209l.324,4.317a6.849,6.849,0,0,0-5.314,2.66,7.142,7.142,0,0,0-1.523,3.323,6.2,6.2,0,0,0,.393,3.418,7.659,7.659,0,0,0,5.561,4.413,6.2,6.2,0,0,0,3.419-.394,7.154,7.154,0,0,0,2.89-2.238,6.81,6.81,0,0,0,1.357-5.8l4.279-.667a9.922,9.922,0,0,1-.129,4.741,12.621,12.621,0,0,1-2.372,4.565A12.274,12.274,0,0,1,811.558,428.2Z" transform="translate(-750.027 -385.065)" fill="#fff"/><path d="M832.845,400.934l2.819,2.8L823.97,415.5,808.778,400.4,820.2,388.916l2.82,2.807-7.94,7.985,3.3,3.279,7.014-7.052,2.733,2.719-7.013,7.053,3.517,3.495Z" transform="translate(-747.221 -388.916)" fill="#fff"/></g><g transform="translate(905.741 806.805)"><g transform="translate(0 0)"><path d="M881.233,734.524a11.539,11.539,0,0,1-2.894-3.058l2.932-2.861a11.455,11.455,0,0,0,2.453,2.705,12.322,12.322,0,0,0,3.311,1.954,6.033,6.033,0,0,0,3.134.555,1.891,1.891,0,0,0,1.55-1.183,1.592,1.592,0,0,0-.092-1.4,4.522,4.522,0,0,0-1.129-1.313q-.755-.626-2.1-1.548a34.425,34.425,0,0,1-3.309-2.546,6.506,6.506,0,0,1-1.813-2.716,5.045,5.045,0,0,1,.212-3.6,5.965,5.965,0,0,1,2.175-2.78,6.791,6.791,0,0,1,3.713-1.125,12.415,12.415,0,0,1,4.953.989,16.584,16.584,0,0,1,3.555,1.918,11.884,11.884,0,0,1,2.676,2.563l-2.8,2.944a11.952,11.952,0,0,0-4.913-3.732,5.573,5.573,0,0,0-3.108-.5,2.054,2.054,0,0,0-1.574,1.29,1.737,1.737,0,0,0,.47,1.943,18.1,18.1,0,0,0,2.876,2.263,35.024,35.024,0,0,1,3.309,2.545,6.648,6.648,0,0,1,1.823,2.687,4.922,4.922,0,0,1-.2,3.57,5.852,5.852,0,0,1-2.179,2.744,6.877,6.877,0,0,1-3.741,1.114,12.539,12.539,0,0,1-4.966-.994A17.51,17.51,0,0,1,881.233,734.524Z" transform="translate(-878.339 -714.651)"/><path d="M916.092,742.347l-1.051,3.836-16-4.387,5.666-20.659,15.613,4.283-1.053,3.836-10.86-2.979-1.231,4.485,9.592,2.63-1.02,3.72-9.592-2.632-1.312,4.78Z" transform="translate(-873.7 -713.411)"/><path d="M924.981,746.719a10.622,10.622,0,0,1-3.5-4.547,11.5,11.5,0,0,1,1.777-11.275,10.62,10.62,0,0,1,4.725-3.253,12.359,12.359,0,0,1,6.1-.477,12.506,12.506,0,0,1,4.819,1.749,10.115,10.115,0,0,1,3.3,3.37l-3.6,2.406a6.844,6.844,0,0,0-4.927-3.317,7.148,7.148,0,0,0-3.644.31,6.176,6.176,0,0,0-2.78,2.023,7.659,7.659,0,0,0-1.107,7.014,6.189,6.189,0,0,0,2.025,2.781,7.138,7.138,0,0,0,3.371,1.415,6.8,6.8,0,0,0,5.715-1.672l2.687,3.4a9.928,9.928,0,0,1-4.193,2.219,12.593,12.593,0,0,1-5.14.182A12.313,12.313,0,0,1,924.981,746.719Z" transform="translate(-868.842 -712.099)"/><path d="M946.506,748.427q-2.455-2.639-2.269-7.347l.47-11.987,4.954.195-.464,11.8q-.226,5.747,4.545,5.936a4.481,4.481,0,0,0,3.6-1.252,6.49,6.49,0,0,0,1.393-4.309l.464-11.8,4.891.191-.47,11.987q-.183,4.708-2.837,7.146a11.321,11.321,0,0,1-14.279-.561Z" transform="translate(-863.576 -711.628)"/><path d="M983.212,749.963l-4.582-5.627-.244.017-4.3.336.464,5.949-4.943.385-1.665-21.356,9.243-.721a11.914,11.914,0,0,1,5,.561,7.091,7.091,0,0,1,4.879,6.466,6.979,6.979,0,0,1-3.868,7.085l5.326,6.491Zm-2.527-16.272a5.21,5.21,0,0,0-3.46-.7l-4.027.315.579,7.443,4.027-.313a5.147,5.147,0,0,0,3.311-1.241,3.862,3.862,0,0,0-.43-5.507Z" transform="translate(-858.262 -711.672)"/><path d="M989.9,727.384l4.888-.825,3.573,21.12-4.888.826Z" transform="translate(-853.342 -712.196)"/><path d="M1007.395,728.615l-6.641,1.7-1-3.913,18.084-4.624,1,3.915-6.642,1.7,4.305,16.841-4.8,1.228Z" transform="translate(-851.133 -713.268)"/><path d="M1034.662,730.684l2.628,7.12-4.648,1.716-2.651-7.176L1017.442,722.3l4.937-1.824,8.665,6.945,2.071-10.91,4.566-1.686Z" transform="translate(-847.17 -714.825)"/></g></g><g transform="translate(-1547 -5563.686)"><path d="M2639.421,6157.271l-.2.114Z" fill="#214666"/><path d="M2627.409,6091.6l-36.254,21.071v42.137l36.251,21.072,36.739-21.068v-42.141Z" fill="#214666"/><path d="M2630.657,6154.924a10.109,10.109,0,0,1,.045-2.47l-3.262,1.9-.937-.54-23.309-13.454-7.108,4.13,31.351,18.1,5.634-3.274A6.165,6.165,0,0,1,2630.657,6154.924Z" fill="#428ccb"/><path d="M2631.256,6149.97l-3.823,2.222,3.823-2.221Z" fill="#428ccb"/><path d="M2637.475,6138.638a13.862,13.862,0,0,0-1.307,5.386A13.862,13.862,0,0,1,2637.475,6138.638Z" fill="#b3d1ea"/><path d="M2636.2,6144.94a11.61,11.61,0,0,0-1.334,1.722A11.61,11.61,0,0,1,2636.2,6144.94Z" fill="#b3d1ea"/><path d="M2628.349,6143.4l-.935.545-24.2-13.992-7.132,4.147,31.351,18.1,3.823-2.222a17.482,17.482,0,0,1,3.047-5.7,14.663,14.663,0,0,1,.874-4.844Z" fill="#b3d1ea"/><path d="M2627.341,6116.032l8.971-5.213-9.03-5.213-.048.028h0l-8.923,5.185Z" fill="#e1edf7"/><path d="M2614.133,6123.707l-9.03-5.213-9.021,5.213,8.99,5.162.113-.064h0Z" fill="#e1edf7"/><path d="M2618.427,6136.581l9.029,5.213,8.633-5.059.032-.018.262-.153-8.985-5.2Z" fill="#e1edf7"/><path d="M2616.163,6122.424l.09.053,8.971-5.213-.093-.053h0l-8.937-5.16-8.971,5.213C2608.609,6118.064,2614.915,6121.706,2616.163,6122.424Z" fill="#e1edf7"/><path d="M2618.371,6123.7l9.027,5.212,8.971-5.213-9.027-5.212Z" fill="#e1edf7"/><path d="M2646.871,6130.457c-.082,0-.165.006-.248.011.1-.006.2,0,.307-.007Z" fill="#e1edf7"/><path d="M2638.49,6124.922l-8.971,5.213,8.013,4.626c1.864-2.729,4.508-5.183,7.669-5.965Z" fill="#e1edf7"/><path d="M2649.58,6118.48l-8.972,5.216,9.03,5.212,8.97-5.212Z" fill="#e1edf7"/><path d="M2629.461,6117.255l9.027,5.212,8.971-5.213-9.028-5.212Z" fill="#e1edf7"/><path d="M2623.013,6128.834l-6.761-3.9-8.971,5.213,9.028,5.212,8.971-5.213Z" fill="#e1edf7"/><path d="M2627.4,6090.02l-37.619,21.866v43.722l37.619,21.864,38.121-21.861v-43.73Zm35.754,64.22-35.745,20.5-35.256-20.5v-41l35.247-20.493,35.745,20.5Z" fill="#fff"/><path d="M2634.407,6157.98c1.46.843,3.212.352,4.58-.458l7.755-4.476c.879-.514,6.951-4.009,7.966-4.6,3.21-1.828,5.841-6.55,5.507-10.192-.135-2.338-1.959-3.91-4.285-3.121h0c2.306-5.786-2.593-7.062-5.521-2.333-1.268-2.883-4.5-2.79-6.86-1.328-4.414,2.682-7.633,8.362-7.348,13.471a13.984,13.984,0,0,0-2.327,3.5C2632.426,6151.368,2631.418,6156.112,2634.407,6157.98Z" fill="#fff"/><path d="M2646.742,6153.045l-4,2.311Z" fill="#214666"/><path d="M2608.295,6197.958l-.014-5.68-2.785,4.679h-.986l-2.774-4.558v5.559h-2.056v-9.467h1.812l3.545,5.883,3.488-5.883h1.8l.028,9.467Z" fill="#001021"/><path d="M2612.557,6189.329a1.144,1.144,0,0,1,0-1.677,1.334,1.334,0,0,1,.945-.338,1.367,1.367,0,0,1,.947.325,1.037,1.037,0,0,1,.365.811,1.148,1.148,0,0,1-.365.873,1.483,1.483,0,0,1-1.892.006Zm-.11,1.353h2.112v7.276h-2.112Z" fill="#001021"/><path d="M2619.555,6190.844a3.787,3.787,0,0,1,1.48-.27v1.947c-.234-.018-.392-.027-.472-.027a1.929,1.929,0,0,0-1.42.507,2.046,2.046,0,0,0-.514,1.522v3.435h-2.111v-7.276h2.015v.96A2.34,2.34,0,0,1,2619.555,6190.844Z" fill="#001021"/><path d="M2627.783,6191.378a3.075,3.075,0,0,1,.906,2.428v4.152h-1.974v-.906a2.349,2.349,0,0,1-2.217,1.014,3.435,3.435,0,0,1-1.455-.284,2.165,2.165,0,0,1-.939-.785,2.034,2.034,0,0,1-.325-1.135,1.9,1.9,0,0,1,.764-1.6,3.9,3.9,0,0,1,2.361-.581h1.676a1.341,1.341,0,0,0-.42-1.062,1.845,1.845,0,0,0-1.256-.372,3.673,3.673,0,0,0-1.144.183,3.056,3.056,0,0,0-.953.494l-.758-1.475a4.578,4.578,0,0,1,1.428-.648,6.349,6.349,0,0,1,1.711-.23A3.783,3.783,0,0,1,2627.783,6191.378Zm-1.8,5.018a1.362,1.362,0,0,0,.6-.737v-.744h-1.447q-1.3,0-1.3.852a.763.763,0,0,0,.318.643,1.44,1.44,0,0,0,.873.236A1.831,1.831,0,0,0,2625.984,6196.4Z" fill="#001021"/><path d="M2637.2,6191.385a3.215,3.215,0,0,1,.832,2.407v4.166h-2.109v-3.841a1.9,1.9,0,0,0-.379-1.291,1.385,1.385,0,0,0-1.1-.427,1.681,1.681,0,0,0-1.271.494,2.046,2.046,0,0,0-.473,1.467v3.6H2630.6v-7.276h2.015v.852a2.786,2.786,0,0,1,1.041-.71,3.618,3.618,0,0,1,1.366-.25A2.989,2.989,0,0,1,2637.2,6191.385Z" fill="#001021"/><path d="M2644.635,6197.606a2.173,2.173,0,0,1-.764.345,3.874,3.874,0,0,1-.953.115,2.838,2.838,0,0,1-2.01-.663,2.539,2.539,0,0,1-.709-1.947v-2.989h-1.123v-1.623h1.123v-1.772h2.11v1.772h1.812v1.623h-1.812v2.962a.994.994,0,0,0,.236.71.877.877,0,0,0,.67.25,1.354,1.354,0,0,0,.851-.27Z" fill="#001021"/><path d="M2645.934,6189.329a1.144,1.144,0,0,1,0-1.677,1.339,1.339,0,0,1,.947-.338,1.37,1.37,0,0,1,.947.325,1.044,1.044,0,0,1,.365.811,1.155,1.155,0,0,1-.365.873,1.486,1.486,0,0,1-1.894.006Zm-.108,1.353h2.11v7.276h-2.11Z" fill="#001021"/><path d="M2650.572,6197.843a4.654,4.654,0,0,1-1.379-.561l.7-1.515a4.454,4.454,0,0,0,1.176.507,4.932,4.932,0,0,0,1.354.2q1.338,0,1.338-.663a.469.469,0,0,0-.366-.446,5.458,5.458,0,0,0-1.121-.23,10.723,10.723,0,0,1-1.474-.311,2.276,2.276,0,0,1-1.008-.622,1.765,1.765,0,0,1-.426-1.271,1.989,1.989,0,0,1,.4-1.224,2.567,2.567,0,0,1,1.164-.832,4.951,4.951,0,0,1,1.8-.3,7.047,7.047,0,0,1,1.535.169,4.277,4.277,0,0,1,1.264.466l-.7,1.5a4.207,4.207,0,0,0-2.1-.541,2.125,2.125,0,0,0-1.013.19.553.553,0,0,0-.338.487.483.483,0,0,0,.363.473,6.479,6.479,0,0,0,1.164.257,12.212,12.212,0,0,1,1.461.318,2.19,2.19,0,0,1,.986.615,1.746,1.746,0,0,1,.42,1.244,1.914,1.914,0,0,1-.406,1.2,2.58,2.58,0,0,1-1.184.818,5.246,5.246,0,0,1-1.845.291A7.035,7.035,0,0,1,2650.572,6197.843Z" fill="#001021"/><path d="M2572.732,6213.721a4.685,4.685,0,0,1-1.837-1.745,5.084,5.084,0,0,1,0-5.045,4.686,4.686,0,0,1,1.837-1.744,5.869,5.869,0,0,1,4.856-.2,4.462,4.462,0,0,1,1.67,1.244l-1.406,1.3a3.024,3.024,0,0,0-2.379-1.11,3.168,3.168,0,0,0-1.571.386,2.735,2.735,0,0,0-1.074,1.075,3.375,3.375,0,0,0,0,3.138,2.745,2.745,0,0,0,1.074,1.075,3.167,3.167,0,0,0,1.571.385,3.012,3.012,0,0,0,2.379-1.122l1.406,1.3a4.4,4.4,0,0,1-1.676,1.258,5.58,5.58,0,0,1-2.232.432A5.45,5.45,0,0,1,2572.732,6213.721Z" fill="#001021"/><path d="M2581.727,6213.815a3.57,3.57,0,0,1-1.428-1.332,3.894,3.894,0,0,1,0-3.868,3.567,3.567,0,0,1,1.428-1.332,4.658,4.658,0,0,1,4.119,0,3.592,3.592,0,0,1,1.42,1.332,3.9,3.9,0,0,1,0,3.868,3.6,3.6,0,0,1-1.42,1.332,4.65,4.65,0,0,1-4.119,0Zm3.394-1.8a2.323,2.323,0,0,0,0-2.934,1.758,1.758,0,0,0-1.332-.548,1.782,1.782,0,0,0-1.34.548,2.306,2.306,0,0,0,0,2.934,1.78,1.78,0,0,0,1.34.548A1.757,1.757,0,0,0,2585.121,6212.016Z" fill="#001021"/><path d="M2595.791,6207.615a3.214,3.214,0,0,1,.832,2.407v4.165h-2.109v-3.84a1.9,1.9,0,0,0-.379-1.292,1.387,1.387,0,0,0-1.1-.426,1.68,1.68,0,0,0-1.271.493,2.049,2.049,0,0,0-.473,1.468v3.6h-2.109v-7.276h2.015v.852a2.789,2.789,0,0,1,1.041-.71,3.636,3.636,0,0,1,1.365-.25A2.989,2.989,0,0,1,2595.791,6207.615Z" fill="#001021"/><path d="M2603.225,6213.836a2.2,2.2,0,0,1-.766.345,3.9,3.9,0,0,1-.953.115,2.829,2.829,0,0,1-2.008-.663,2.537,2.537,0,0,1-.711-1.948V6208.7h-1.121v-1.623h1.121V6205.3h2.111v1.772h1.811v1.623H2600.9v2.961a1,1,0,0,0,.237.711.878.878,0,0,0,.67.25,1.353,1.353,0,0,0,.851-.271Z" fill="#001021"/><path d="M2609.945,6207.608a3.079,3.079,0,0,1,.907,2.427v4.152h-1.975v-.906a2.353,2.353,0,0,1-2.219,1.015,3.446,3.446,0,0,1-1.453-.284,2.157,2.157,0,0,1-.939-.785,2.036,2.036,0,0,1-.327-1.136,1.9,1.9,0,0,1,.766-1.6,3.89,3.89,0,0,1,2.359-.582h1.678a1.343,1.343,0,0,0-.42-1.061,1.846,1.846,0,0,0-1.258-.372,3.677,3.677,0,0,0-1.142.182,3.052,3.052,0,0,0-.953.494l-.758-1.474a4.568,4.568,0,0,1,1.426-.649,6.388,6.388,0,0,1,1.711-.23A3.788,3.788,0,0,1,2609.945,6207.608Zm-1.8,5.017a1.367,1.367,0,0,0,.6-.737v-.744h-1.447q-1.3,0-1.3.852a.76.76,0,0,0,.318.643,1.428,1.428,0,0,0,.872.236A1.832,1.832,0,0,0,2608.146,6212.625Z" fill="#001021"/><path d="M2612.867,6205.559a1.146,1.146,0,0,1,0-1.677,1.339,1.339,0,0,1,.946-.338,1.373,1.373,0,0,1,.947.324,1.04,1.04,0,0,1,.365.812,1.145,1.145,0,0,1-.365.872,1.322,1.322,0,0,1-.947.345A1.336,1.336,0,0,1,2612.867,6205.559Zm-.109,1.352h2.111v7.276h-2.111Z" fill="#001021"/><path d="M2623.436,6207.615a3.218,3.218,0,0,1,.832,2.407v4.165h-2.11v-3.84a1.9,1.9,0,0,0-.379-1.292,1.393,1.393,0,0,0-1.095-.426,1.676,1.676,0,0,0-1.272.493,2.044,2.044,0,0,0-.473,1.468v3.6h-2.111v-7.276h2.016v.852a2.805,2.805,0,0,1,1.041-.71,3.654,3.654,0,0,1,1.367-.25A3,3,0,0,1,2623.436,6207.615Z" fill="#001021"/><path d="M2633.342,6211.144h-5.5a1.716,1.716,0,0,0,.7,1.069,2.33,2.33,0,0,0,1.379.392,2.792,2.792,0,0,0,1.008-.169,2.444,2.444,0,0,0,.818-.534l1.123,1.217a3.772,3.772,0,0,1-3,1.177,4.739,4.739,0,0,1-2.178-.481,3.515,3.515,0,0,1-1.46-1.332,3.656,3.656,0,0,1-.514-1.934,3.7,3.7,0,0,1,.508-1.927,3.541,3.541,0,0,1,1.392-1.339,4.31,4.31,0,0,1,3.914-.02,3.346,3.346,0,0,1,1.36,1.318,3.925,3.925,0,0,1,.494,2C2633.383,6210.6,2633.369,6210.793,2633.342,6211.144Zm-4.936-2.339a1.727,1.727,0,0,0-.595,1.108h3.584a1.747,1.747,0,0,0-.6-1.1,1.778,1.778,0,0,0-1.19-.412A1.812,1.812,0,0,0,2628.406,6208.805Z" fill="#001021"/><path d="M2637.824,6207.074a3.784,3.784,0,0,1,1.483-.271v1.947c-.237-.017-.393-.027-.475-.027a1.935,1.935,0,0,0-1.42.508,2.051,2.051,0,0,0-.514,1.521v3.435h-2.109v-7.276h2.016v.96A2.336,2.336,0,0,1,2637.824,6207.074Z" fill="#001021"/><path d="M2646.508,6213.721a4.693,4.693,0,0,1-1.84-1.745,5.084,5.084,0,0,1,0-5.045,4.694,4.694,0,0,1,1.84-1.744,5.455,5.455,0,0,1,2.631-.629,5.511,5.511,0,0,1,2.224.433,4.461,4.461,0,0,1,1.67,1.244l-1.406,1.3a3.024,3.024,0,0,0-2.381-1.11,3.157,3.157,0,0,0-1.568.386,2.731,2.731,0,0,0-1.076,1.075,3.39,3.39,0,0,0,0,3.138,2.742,2.742,0,0,0,1.076,1.075,3.156,3.156,0,0,0,1.568.385,3.012,3.012,0,0,0,2.381-1.122l1.406,1.3a4.39,4.39,0,0,1-1.678,1.258,5.563,5.563,0,0,1-2.23.432A5.437,5.437,0,0,1,2646.508,6213.721Z" fill="#001021"/><path d="M2654.357,6204.152h2.112v10.035h-2.112Z" fill="#001021"/><path d="M2659.828,6213.815a3.571,3.571,0,0,1-1.426-1.332,3.9,3.9,0,0,1,0-3.868,3.567,3.567,0,0,1,1.426-1.332,4.368,4.368,0,0,1,2.063-.48,4.317,4.317,0,0,1,2.056.48,3.572,3.572,0,0,1,1.42,1.332,3.894,3.894,0,0,1,0,3.868,3.576,3.576,0,0,1-1.42,1.332,4.306,4.306,0,0,1-2.056.481A4.357,4.357,0,0,1,2659.828,6213.815Zm3.4-1.8a2.334,2.334,0,0,0,0-2.934,1.9,1.9,0,0,0-2.672,0,2.3,2.3,0,0,0,0,2.934,1.9,1.9,0,0,0,2.672,0Z" fill="#001021"/><path d="M2674.617,6206.911v7.276h-2v-.865a2.784,2.784,0,0,1-1,.723,3.136,3.136,0,0,1-1.258.251,3.1,3.1,0,0,1-2.271-.825,3.29,3.29,0,0,1-.838-2.448v-4.112h2.109v3.8q0,1.758,1.475,1.758a1.584,1.584,0,0,0,1.217-.494,2.085,2.085,0,0,0,.459-1.467v-3.6Z" fill="#001021"/><path d="M2683.99,6204.152v10.035h-2.015v-.838a2.784,2.784,0,0,1-2.272.947,3.78,3.78,0,0,1-1.859-.46,3.29,3.29,0,0,1-1.3-1.312,4.34,4.34,0,0,1,0-3.949,3.284,3.284,0,0,1,1.3-1.312,3.769,3.769,0,0,1,1.859-.46,2.772,2.772,0,0,1,2.178.879v-3.53Zm-2.6,7.864a2.306,2.306,0,0,0,0-2.934,1.893,1.893,0,0,0-2.664,0,2.3,2.3,0,0,0,0,2.934,1.893,1.893,0,0,0,2.664,0Z" fill="#001021"/></g></g></svg>